<svg width="2500" height="832" viewBox="0 0 2500 832" fill="none" xmlns="http://www.w3.org/2000/svg">
<g clip-path="url(#clip0_1_29)">
<path d="M129.378 834.599L118.73 860.946C114.792 858.897 110.416 858.311 104.728 858.311C89.413 858.311 77.4527 867.386 77.4527 886.414V907.052H120.043V935.155H77.4527V1070.84H46.8227V935.155H16.1926V907.052H46.8227V885.39C46.8227 852.017 70.4516 830.208 104.728 830.208C115.084 830.355 122.377 831.672 129.378 834.599Z" fill="#010101"/>
<path d="M537.487 861.092V936.912H635.357V965.6H537.487V1041.42H646.005V1070.84H506.857V831.672H646.005V861.092H537.487Z" fill="#010101"/>
<path d="M1992.41 39.8126H2081.68V639.196H1992.41V39.8126Z" fill="#010101"/>
<path d="M855.456 243.852C743 243.852 651.401 329.624 651.401 447.745C651.401 565.133 743 651.637 855.456 651.637C967.912 651.637 1059.51 565.133 1059.51 447.745C1059.51 329.478 967.912 243.852 855.456 243.852ZM855.456 571.28C793.904 571.28 740.812 520.344 740.812 447.745C740.812 374.413 793.904 324.209 855.456 324.209C917.008 324.209 970.1 374.413 970.1 447.745C970.1 520.344 917.008 571.28 855.456 571.28Z" fill="#010101"/>
<path d="M325.848 306.352V392.856H532.09C525.964 441.451 509.774 477.018 485.124 501.755C455.077 531.907 408.111 565.133 325.848 565.133C198.806 565.133 99.6231 462.382 99.6231 334.894C99.6231 207.406 198.806 104.801 325.848 104.801C394.401 104.801 444.43 131.879 481.332 166.569L542.154 105.532C490.521 56.0596 422.114 18.2962 325.848 18.2962C151.84 18.2962 5.69092 160.421 5.69092 335.04C5.69092 509.659 151.986 651.784 325.848 651.784C419.78 651.784 490.521 620.9 545.947 562.937C602.977 505.707 620.625 425.496 620.625 360.508C620.625 340.456 619.021 321.867 615.958 306.498H325.848V306.352Z" fill="#010101"/>
<path d="M2326.43 571.28C2281.07 571.28 2248.68 550.496 2227.83 509.512L2499.56 396.662L2490.37 373.535C2473.45 328.014 2421.82 243.705 2316.36 243.705C2211.64 243.705 2124.71 326.404 2124.71 447.598C2124.71 561.913 2210.91 651.491 2326.43 651.491C2419.63 651.491 2473.45 594.26 2495.77 561.181L2426.49 514.782C2403.44 548.886 2371.93 571.28 2326.43 571.28ZM2319.57 322.599C2355.02 322.599 2385.06 340.309 2394.98 365.924L2213.39 441.597C2211.05 362.704 2274.06 322.599 2319.57 322.599Z" fill="#010101"/>
<path d="M1846.12 289.373H1843.06C1823.07 265.368 1784.57 243.852 1736 243.852C1634.33 243.852 1541.28 333.43 1541.28 448.623C1541.28 562.937 1634.48 651.784 1736 651.784C1784.42 651.784 1822.93 630.121 1843.06 605.385H1846.12V634.805C1846.12 712.82 1804.55 754.535 1737.6 754.535C1682.9 754.535 1649.07 715.162 1635.21 681.936L1557.47 714.43C1579.78 768.44 1639 834.892 1737.6 834.892C1842.33 834.892 1930.86 773.124 1930.86 622.51V256.147H1846.12V289.373ZM1743.73 571.28C1682.18 571.28 1630.54 519.466 1630.54 448.476C1630.54 376.609 1682.18 324.062 1743.73 324.062C1804.55 324.062 1852.24 376.609 1852.24 448.476C1852.24 519.612 1804.55 571.28 1743.73 571.28Z" fill="#010101"/>
<path d="M1300.32 243.852C1187.86 243.852 1096.27 329.624 1096.27 447.745C1096.27 565.133 1187.86 651.637 1300.32 651.637C1412.78 651.637 1504.38 565.133 1504.38 447.745C1504.38 329.478 1412.78 243.852 1300.32 243.852ZM1300.32 571.28C1238.77 571.28 1185.68 520.344 1185.68 447.745C1185.68 374.413 1238.77 324.209 1300.32 324.209C1361.87 324.209 1414.96 374.413 1414.96 447.745C1415.11 520.344 1362.02 571.28 1300.32 571.28Z" fill="#010101"/>
</g>
<defs>
<clipPath id="clip0_1_29">
<rect width="2500" height="832" fill="white"/>
</clipPath>
</defs>
</svg>
