<svg width="2500" height="583" viewBox="0 0 2500 583" fill="none" xmlns="http://www.w3.org/2000/svg">
<g clip-path="url(#clip0_1_58)">
<path d="M1924.49 179.09V402.129C1924.49 458.918 1952 490.613 2007.02 490.613C2021.75 490.613 2036.26 489.963 2050.56 488.663C2064.86 487.363 2076.99 485.409 2086.95 482.809V179.09H2151.93V523.126C2132.44 530.062 2109.91 535.048 2084.35 538.08C2058.72 541.552 2032.89 543.289 2007.02 543.28C1958.5 543.28 1921.68 527.848 1896.55 503.571C1871.42 479.294 1858.86 442.446 1858.86 393.029V179.086L1924.49 179.09ZM917.768 179.086V402.124C917.768 458.914 945.278 490.609 1000.3 490.609C1015.03 490.609 1029.54 489.959 1043.83 488.659C1058.13 487.359 1070.26 485.404 1080.23 482.804V179.09H1145.21V523.126C1125.71 530.062 1103.19 535.048 1077.63 538.08C1052 541.552 1026.16 543.289 1000.3 543.28C951.778 543.28 914.95 527.848 889.826 503.571C864.698 479.294 852.134 442.446 852.134 393.029V179.086H917.768ZM1658.01 64.0015L1599.42 74.628L1599.29 429.316C1599.29 497.377 1636.12 541.988 1717.12 541.988C1737.06 541.988 1775.7 536.579 1798.66 532.679L1790.93 486.767C1790.48 488.571 1739.23 493.771 1711.89 492.278C1684.54 490.781 1659.87 468.483 1657.48 445.578L1657.61 231.115H1792.63V179.044H1657.61L1658.01 64.0015ZM533.306 2.35608L467.635 12.9826V523.126C506.19 536.566 547.136 543.326 590.46 543.326C597.874 543.326 605.054 543.07 611.956 542.538V542.412C740.053 543.024 806.349 441.46 789.202 323.592C775.728 240.463 706.727 170.254 625.988 170.254C593.924 170.254 568.36 178.93 549.3 185.866C543.873 187.908 538.537 190.183 533.306 192.685V2.35608ZM625.33 222.988C697.396 226.54 726.269 289.959 728.512 352.318C731.574 437.573 672.067 497.7 591.773 490.596C573.233 488.956 553.67 488.281 533.306 483.509V248.829C541.943 241.469 551.73 235.575 562.275 231.383C577.439 225.747 598.512 221.663 625.33 222.988ZM1299.22 534.134H1233.59V193.394C1253.51 186.458 1275.61 181.476 1299.87 178.44C1324.56 174.972 1349.91 173.24 1375.9 173.24C1472.94 173.24 1521.46 221.575 1521.46 318.245V534.134H1456.48V309.141C1456.48 253.651 1429.62 225.907 1375.9 225.907C1361.6 225.907 1347.74 226.557 1334.31 227.861C1320.88 229.161 1309.18 230.893 1299.22 233.061V534.134ZM154.333 179.09V402.129C154.333 458.918 181.843 490.613 236.863 490.613C251.591 490.613 266.105 489.963 280.4 488.663C294.7 487.363 306.828 485.409 316.792 482.809V179.09H381.776V523.126C362.28 530.062 339.752 535.048 314.192 538.08C288.562 541.552 262.727 543.289 236.863 543.28C188.343 543.28 151.515 527.848 126.392 503.571C101.264 479.294 88.7 442.446 88.7 393.029V179.086L154.333 179.09Z" fill="black"/>
<path d="M2500 174.292C2500 250.72 2438.04 312.68 2361.61 312.68C2285.18 312.68 2223.22 250.72 2223.22 174.292C2223.22 97.8646 2285.18 35.9047 2361.61 35.9047C2438.04 35.9047 2500 97.8646 2500 174.292Z" fill="black"/>
<path d="M2399.43 108.793C2403.67 111.243 2408.71 111.907 2413.44 110.639C2415.79 110.011 2417.98 108.928 2419.91 107.451C2421.83 105.975 2423.45 104.134 2424.66 102.033C2425.87 99.9322 2426.66 97.6132 2426.98 95.2083C2427.29 92.8034 2427.13 90.3596 2426.5 88.0165C2425.88 85.6734 2424.79 83.477 2423.32 81.5525C2421.84 79.628 2420 78.0132 2417.9 76.8002C2415.8 75.5873 2413.48 74.8 2411.07 74.4834C2408.67 74.1668 2406.22 74.3271 2403.88 74.955C2401.54 75.5829 2399.34 76.6662 2397.42 78.1431C2395.49 79.6199 2393.88 81.4614 2392.66 83.5623C2391.45 85.6633 2390.66 87.9826 2390.35 90.3878C2390.03 92.7929 2390.19 95.237 2390.82 97.5802C2391.45 99.9235 2392.53 102.12 2394.01 104.045C2395.48 105.969 2397.32 107.58 2399.43 108.793ZM2361.61 228.268C2353.49 228.268 2345.79 226.46 2338.87 223.244L2326.04 246.25C2337.1 251.727 2349.27 254.57 2361.61 254.557C2369.04 254.557 2376.23 253.53 2383.05 251.638C2383.67 247.838 2385.12 244.221 2387.31 241.053C2389.49 237.884 2392.36 235.243 2395.69 233.321C2399.02 231.395 2402.74 230.235 2406.57 229.925C2410.4 229.614 2414.25 230.161 2417.85 231.526C2431.95 217.707 2440.44 199.165 2441.69 179.463L2415.36 179.081C2412.94 206.65 2389.81 228.268 2361.61 228.268ZM2361.61 120.325C2389.81 120.325 2412.94 141.939 2415.36 169.507L2441.69 169.122C2440.44 149.421 2431.94 130.879 2417.84 117.063C2414.25 118.427 2410.4 118.973 2406.56 118.662C2402.73 118.351 2399.02 117.19 2395.69 115.264C2392.35 113.342 2389.49 110.702 2387.3 107.534C2385.12 104.366 2383.67 100.75 2383.05 96.9503C2364.03 91.6768 2343.74 93.5952 2326.04 102.339L2338.87 125.345C2346 122.029 2353.76 120.318 2361.61 120.325ZM2307.64 174.292C2307.64 156.029 2316.72 139.905 2330.59 130.134L2317.09 107.51C2300.67 118.462 2288.86 135.068 2283.89 154.167C2286.88 156.598 2289.29 159.667 2290.95 163.149C2292.6 166.63 2293.46 170.438 2293.45 174.292C2293.45 182.411 2289.73 189.653 2283.89 194.413C2288.85 213.512 2300.67 230.118 2317.08 241.071L2330.59 218.442C2323.5 213.469 2317.71 206.86 2313.72 199.175C2309.72 191.489 2307.64 182.954 2307.64 174.292ZM2399.43 239.787C2395.19 242.236 2392.09 246.271 2390.82 251.003C2389.55 255.735 2390.22 260.777 2392.67 265.02C2395.11 269.263 2399.15 272.359 2403.88 273.628C2408.61 274.897 2413.66 274.233 2417.9 271.784C2420 270.572 2421.84 268.957 2423.32 267.033C2424.79 265.108 2425.88 262.912 2426.51 260.569C2427.13 258.226 2427.3 255.782 2426.98 253.377C2426.66 250.972 2425.88 248.652 2424.66 246.552C2423.45 244.451 2421.84 242.609 2419.91 241.132C2417.99 239.655 2415.79 238.572 2413.45 237.944C2411.1 237.315 2408.66 237.155 2406.26 237.471C2403.85 237.788 2401.53 238.575 2399.43 239.787ZM2267.51 155.82C2265.08 155.819 2262.68 156.297 2260.44 157.225C2258.2 158.153 2256.16 159.513 2254.45 161.229C2252.73 162.944 2251.37 164.98 2250.44 167.221C2249.51 169.462 2249.03 171.864 2249.03 174.29C2249.03 176.716 2249.51 179.118 2250.44 181.359C2251.37 183.601 2252.73 185.637 2254.44 187.353C2256.16 189.068 2258.19 190.429 2260.44 191.358C2262.68 192.287 2265.08 192.765 2267.5 192.765C2272.4 192.765 2277.1 190.82 2280.57 187.356C2284.03 183.892 2285.98 179.194 2285.98 174.294C2285.98 169.395 2284.03 164.696 2280.57 161.232C2277.11 157.767 2272.41 155.82 2267.51 155.82Z" fill="white"/>
</g>
<defs>
<clipPath id="clip0_1_58">
<rect width="2500" height="583" fill="white"/>
</clipPath>
</defs>
</svg>
